<?xml version="1.0" encoding="UTF-8"?>
<svg version="1.1" xmlns="http://www.w3.org/2000/svg" width="907" height="906">
<path d="M0 0 C2.10061446 -0.00187056 4.20122858 -0.00417223 6.30184215 -0.00686532 C12.04866495 -0.01295951 17.79547315 -0.01285254 23.54229844 -0.01167095 C29.75042005 -0.01146634 35.95853705 -0.01699147 42.16665649 -0.02172852 C54.32029663 -0.03002266 66.47393015 -0.03279579 78.62757254 -0.03334089 C88.51076863 -0.03380126 98.39396316 -0.03586389 108.27715874 -0.03904152 C111.12685662 -0.03993913 113.97655451 -0.04082894 116.8262524 -0.0417164 C117.53479297 -0.04193744 118.24333354 -0.04215849 118.97334503 -0.04238624 C138.89169471 -0.04853672 158.81004384 -0.05248718 178.72839451 -0.05204296 C179.85383874 -0.05201959 179.85383874 -0.05201959 181.00201922 -0.05199575 C184.80441936 -0.05191265 188.60681949 -0.05181361 192.40921963 -0.05171105 C193.1643245 -0.0516911 193.91942936 -0.05167115 194.69741619 -0.05165061 C196.22442148 -0.05161017 197.75142677 -0.05156837 199.27843207 -0.05152521 C223.02546617 -0.05091274 246.77248598 -0.05841551 270.51951599 -0.07209778 C297.22962518 -0.08748112 323.93972497 -0.09606264 350.64983886 -0.09513456 C353.50173724 -0.09505993 356.35363561 -0.09501122 359.20553398 -0.09498024 C359.90768776 -0.09496859 360.60984154 -0.09495693 361.33327271 -0.09494492 C372.59912114 -0.09491424 383.86495709 -0.10128136 395.13080181 -0.1099125 C406.46718751 -0.11841764 417.80355016 -0.11918608 429.13993908 -0.11280318 C435.27300552 -0.10954707 441.40602708 -0.10944836 447.5390892 -0.11815643 C453.1655469 -0.12606268 458.79192441 -0.12454821 464.41838025 -0.1158723 C466.44188764 -0.11434634 468.46540114 -0.11611889 470.48890132 -0.12173238 C486.86790958 -0.16412071 503.3303918 0.48857065 519.39720154 3.94621277 C520.21777039 4.11870544 521.03833923 4.29119812 521.8837738 4.46891785 C558.86118762 12.47551493 591.54531226 30.70800684 618.81272888 56.79972839 C620.004014 57.9372995 621.20899918 59.06049501 622.41673279 60.18058777 C628.74391227 66.21138206 633.96380471 73.16883319 639.20970154 80.13371277 C639.83876404 80.96773621 640.46782654 81.80175964 641.11595154 82.66105652 C669.45470902 121.76052144 678.38453962 166.49570784 678.34341431 213.95414734 C678.34528612 216.0215018 678.34758829 218.08885591 678.35027963 220.15620947 C678.35635834 225.79731925 678.3562687 231.43841412 678.35508525 237.07952642 C678.35488025 243.17928638 678.36040952 249.27904168 678.36514282 255.37879944 C678.37342844 267.31479357 678.37620972 279.25078293 678.3767552 291.1867792 C678.37721597 300.89538402 678.37928068 310.60398725 678.38245583 320.31259155 C678.38335347 323.11425574 678.38424328 325.91591994 678.3851307 328.71758413 C678.38535175 329.41422663 678.3855728 330.11086912 678.38580055 330.828622 C678.3919491 350.40652777 678.39590169 369.984433 678.39545727 389.56233978 C678.39544169 390.29947413 678.39542611 391.03660849 678.39541006 391.79608024 C678.39532696 395.53158365 678.39522792 399.26708707 678.39512535 403.00259048 C678.39509543 404.11527479 678.39509543 404.11527479 678.39506491 405.25043757 C678.39502447 406.7505154 678.39498268 408.25059324 678.39493952 409.75067108 C678.39432714 433.07529799 678.40182885 456.39991034 678.41551208 479.72453308 C678.43090486 505.9736139 678.43947638 532.22268515 678.43854886 558.47177076 C678.43847424 561.2759498 678.43842553 564.08012883 678.43839455 566.88430786 C678.43837706 567.91987694 678.43837706 567.91987694 678.43835923 568.9763666 C678.43832858 580.03948649 678.4446878 591.10259365 678.45332681 602.16570977 C678.46184368 613.30351929 678.46259174 624.44131407 678.45621749 635.57912606 C678.45296736 641.60131961 678.4528407 647.62346747 678.46157074 653.64565659 C678.46950387 659.17536551 678.46793577 664.70499304 678.45928661 670.23470014 C678.45776646 672.2184854 678.45951053 674.20227694 678.46514668 676.18605477 C678.51360064 694.47485861 678.09184461 713.28401295 674.08470154 731.19621277 C673.87297302 732.16969666 673.66124451 733.14318054 673.44309998 734.14616394 C661.60224427 785.89370105 628.96628188 830.41489389 584.24095154 858.67277527 C547.24111005 881.44968946 507.18394396 888.30450944 464.38926697 888.26742554 C462.32191251 888.26929735 460.2545584 888.27159952 458.18720484 888.27429086 C452.54609506 888.28036957 446.90500018 888.28027993 441.26388788 888.27909648 C435.16412792 888.27889148 429.06437263 888.28442075 422.96461487 888.28915405 C411.02862073 888.29743967 399.09263138 888.30022095 387.15663511 888.30076643 C377.44803029 888.3012272 367.73942706 888.30329191 358.03082275 888.30646706 C355.22915856 888.3073647 352.42749437 888.30825451 349.62583017 888.30914193 C348.92918768 888.30936298 348.23254518 888.30958403 347.51479231 888.30981178 C327.93688653 888.31596033 308.35898131 888.31991292 288.78107452 888.3194685 C288.04394017 888.31945292 287.30680582 888.31943734 286.54733406 888.31942129 C282.81183065 888.31933819 279.07632724 888.31923915 275.34082383 888.31913658 C274.22813952 888.31910666 274.22813952 888.31910666 273.09297674 888.31907614 C271.5928989 888.3190357 270.09282106 888.31899391 268.59274323 888.31895075 C245.26811632 888.31833837 221.94350397 888.32584008 198.61888123 888.33952332 C172.36980041 888.35491609 146.12072915 888.36348761 119.87164354 888.36256009 C117.06746451 888.36248547 114.26328548 888.36243676 111.45910645 888.36240578 C110.76872706 888.36239412 110.07834768 888.36238247 109.36704771 888.36237046 C98.30392781 888.36233981 87.24082065 888.36869903 76.17770454 888.37733804 C65.03989502 888.38585491 53.90210024 888.38660298 42.76428825 888.38022872 C36.7420947 888.37697859 30.71994684 888.37685193 24.69775772 888.38558197 C19.16804879 888.3935151 13.63842127 888.391947 8.10871416 888.38329784 C6.12492891 888.38177769 4.14113737 888.38352176 2.15735954 888.38915791 C-16.1314443 888.43761187 -34.94059864 888.01585584 -52.85279846 884.00871277 C-53.82628235 883.79698425 -54.79976624 883.58525574 -55.80274963 883.36711121 C-101.55232324 872.89870769 -142.94271136 845.89405815 -170.79029846 808.13371277 C-171.96398987 806.54236511 -171.96398987 806.54236511 -173.16139221 804.91886902 C-200.42152252 766.69799308 -209.96348489 723.61498729 -209.92401123 677.30581665 C-209.92588219 675.21330142 -209.92818403 673.12078654 -209.93087655 671.02827221 C-209.93696572 665.30844251 -209.93686437 659.58862748 -209.93568218 653.86879528 C-209.93547744 647.68793889 -209.94100391 641.50708712 -209.94573975 635.32623291 C-209.95403109 623.22787402 -209.95680689 611.12952133 -209.95735212 599.03116035 C-209.95781262 589.19233316 -209.95987589 579.35350754 -209.96305275 569.51468086 C-209.96395037 566.67705713 -209.96484018 563.83943339 -209.96572763 561.00180966 C-209.96594868 560.29625792 -209.96616972 559.59070619 -209.96639747 558.8637741 C-209.97254729 539.03151736 -209.97649848 519.19926117 -209.97605419 499.36700344 C-209.97603082 498.24659464 -209.97603082 498.24659464 -209.97600698 497.10355132 C-209.97592388 493.31822307 -209.97582484 489.53289482 -209.97572228 485.74756657 C-209.97570233 484.99586112 -209.97568239 484.24415568 -209.97566184 483.46967127 C-209.9756214 481.94954076 -209.9755796 480.42941025 -209.97553644 478.90927974 C-209.97492397 455.26948499 -209.98242685 431.62970459 -209.99610901 407.98991394 C-210.01149466 381.39625029 -210.02007374 354.80259607 -210.01914579 328.20892769 C-210.01907116 325.36910347 -210.01902245 322.52927925 -210.01899147 319.68945503 C-210.01897982 318.99028148 -210.01896816 318.29110792 -210.01895615 317.57074729 C-210.01892548 306.35629211 -210.02529057 295.14184947 -210.03392373 283.92739801 C-210.04243173 272.64152803 -210.0431952 261.35567602 -210.03681441 250.06980299 C-210.03355978 243.96495935 -210.03345417 237.8601608 -210.04216766 231.7553215 C-210.05008053 226.15352358 -210.04855282 220.55180614 -210.03988353 214.95001007 C-210.03835901 212.93660892 -210.04012455 210.92320162 -210.04574361 208.90980773 C-210.19454865 151.74931481 -192.60605323 100.84545586 -152.79029846 59.13371277 C-151.98979065 58.28035339 -151.18928284 57.42699402 -150.36451721 56.54777527 C-143.72916349 49.66264555 -136.47945908 43.78520461 -128.79029846 38.13371277 C-128.22246643 37.71621765 -127.6546344 37.29872253 -127.06959534 36.86857605 C-99.86059616 17.18031918 -67.24306875 4.4789898 -33.79029846 1.13371277 C-32.9772467 1.05149512 -32.16419494 0.96927748 -31.32650524 0.88456839 C-20.88484479 -0.04965064 -10.47534836 -0.00887616 0 0 Z " fill="#00034D" transform="translate(218.79029846191406,8.866287231445313)"/>
<path d="M0 0 C3.9245712 1.25289786 7.65658245 2.66869373 11.39453125 4.3984375 C12.4198999 4.87168457 13.44526855 5.34493164 14.50170898 5.83251953 C15.59427002 6.34153809 16.68683105 6.85055664 17.8125 7.375 C18.955979 7.90593262 20.09945801 8.43686523 21.27758789 8.98388672 C38.99405761 17.23252915 56.61310659 25.59732413 73.83398438 34.84277344 C75.92983634 35.962514 78.03321931 37.0662465 80.140625 38.1640625 C133.54061955 66.02797104 185.08384987 98.50028353 233 135 C233.57202148 135.43554199 234.14404297 135.87108398 234.73339844 136.31982422 C242.03377235 141.88823259 249.26603913 147.54247044 256.4765625 153.2265625 C258.77844308 155.04089639 261.08560629 156.84808591 263.3984375 158.6484375 C272.08956038 165.42357417 280.6053478 172.39783788 289.09326172 179.42529297 C291.63559075 181.52491169 294.19244908 183.60646512 296.75 185.6875 C306.37714491 193.5615988 315.80073171 201.62881642 325 210 C326.62436435 211.45904132 328.24937427 212.91736421 329.875 214.375 C335.08730194 219.0668849 340.25951137 223.8015836 345.42041016 228.54980469 C347.02038389 230.01871411 348.6250642 231.48234234 350.23046875 232.9453125 C356.24684075 238.44352806 362.10929999 244.04987171 367.83203125 249.85351562 C370.46310339 252.50907912 373.13401888 255.0383488 376 257.4375 C380.08008604 260.91188254 383.62167019 264.84826346 387.21557617 268.80908203 C390.9690545 272.93020241 394.84613399 276.89649327 398.8125 280.8125 C402.71422175 284.67345496 406.4894316 288.55858319 410.03515625 292.75390625 C411.75567985 294.72070758 413.51571515 296.62692231 415.30859375 298.52734375 C415.90414063 299.15970947 416.4996875 299.7920752 417.11328125 300.44360352 C418.31636074 301.71736715 419.52331729 302.98748153 420.734375 304.25366211 C425 308.77964508 425 308.77964508 425 311 C425.66 311 426.32 311 427 311 C427.04692188 335.22803276 427.08208706 359.45605861 427.10362434 383.68412781 C427.11389457 394.93608122 427.12787256 406.18800623 427.15087891 417.43994141 C427.17094409 427.25817702 427.18374726 437.07639205 427.18817699 446.8946476 C427.19076237 452.0832741 427.19674806 457.27184176 427.21146011 462.46044922 C427.36449704 518.68918343 427.36449704 518.68918343 422 537 C419.37547807 533.77324658 416.89557937 530.49962076 414.53125 527.078125 C413.88381836 526.14363525 413.23638672 525.20914551 412.56933594 524.24633789 C411.88645508 523.25754639 411.20357422 522.26875488 410.5 521.25 C409.05766573 519.17031344 407.61495452 517.09088826 406.171875 515.01171875 C405.10743164 513.47717041 405.10743164 513.47717041 404.02148438 511.91162109 C395.58281811 499.75708802 386.96670177 487.7713196 378 476 C377.34668701 475.14196777 377.34668701 475.14196777 376.68017578 474.26660156 C373.80488888 470.49700205 370.90726314 466.7449873 368 463 C367.56333008 462.43571289 367.12666016 461.87142578 366.67675781 461.29003906 C360.82305703 453.73375 354.81708935 446.34216427 348.609375 439.07421875 C346.23730965 436.29266912 343.92507288 433.46651339 341.625 430.625 C333.49035884 420.64882689 325.01767581 410.96053702 316.22143555 401.56298828 C313.61055443 398.77016909 311.05784459 395.93797327 308.546875 393.0546875 C296.96227536 379.76554614 284.44950418 367.34506362 272 354.875 C271.27258606 354.14499786 270.54517212 353.41499573 269.79571533 352.66287231 C267.6792672 350.54049634 265.55904563 348.4219668 263.4375 346.3046875 C262.80766205 345.67287064 262.1778241 345.04105377 261.52890015 344.39009094 C257.76313697 340.64354052 253.88526787 337.08026713 249.85778809 333.61624146 C246.65731108 330.83188535 243.58671857 327.9090802 240.5 325 C235.4139614 320.23343463 230.30273137 315.52577439 225 311 C223.95548748 310.1018435 222.91124263 309.20337566 221.8671875 308.3046875 C218.84969199 305.70963291 215.82587898 303.12206905 212.79931641 300.53759766 C211.6391774 299.54620614 210.47992905 298.55377096 209.32177734 297.56005859 C202.83622003 291.99571195 196.2638785 286.58381026 189.51611328 281.34008789 C184.72760756 277.60668782 180.04643863 273.75342989 175.375 269.875 C169.29652014 264.84179522 163.133686 259.9842562 156.77197266 255.31103516 C153.81858865 253.12590535 150.89057777 250.90711917 147.95751953 248.69482422 C143.64839137 245.44973867 139.32518391 242.22363894 135 239 C133.94594971 238.21181885 133.94594971 238.21181885 132.87060547 237.40771484 C118.9667768 227.04859854 104.47421294 217.54670587 90.01623535 207.98674011 C86.69475469 205.79004999 83.37866402 203.58613495 80.07495117 201.36279297 C72.39691825 196.1995875 64.64317656 191.23019373 56.6875 186.5 C55.61209961 185.85836914 54.53669922 185.21673828 53.42871094 184.55566406 C45.11478374 179.61686916 36.74710852 174.79771808 28.23535156 170.20800781 C26.70289156 169.37985009 25.17374396 168.54554203 23.64746094 167.70605469 C11.70347989 161.14284907 -0.50882067 155.50103085 -13.06494141 150.22607422 C-21.22491155 146.79382297 -29.18955461 143.16948588 -37 139 C-34.08416466 125.6856834 -30.81739667 112.4823085 -26.87573242 99.43334961 C-25.25573316 94.01333647 -23.84836249 88.55590659 -22.5 83.0625 C-20.80672216 76.16502729 -19.00982641 69.31227952 -17.08154297 62.47705078 C-15.20361362 55.79471638 -13.41821735 49.08907505 -11.63980103 42.37963867 C-7.88577739 28.21720676 -3.99612579 14.09618237 0 0 Z " fill="#FEFEFE" transform="translate(470,204)"/>
<path d="M0 0 C4.3716704 0.62291569 7.73120704 2.21766232 11.63671875 4.24609375 C12.58467064 4.73566307 12.58467064 4.73566307 13.55177307 5.23512268 C15.60057487 6.29588677 17.64423611 7.36611228 19.6875 8.4375 C21.10831534 9.17789387 22.52921423 9.91812741 23.95019531 10.65820312 C58.97904512 28.94284932 92.49785525 49.53983279 125 72 C125.70495605 72.48710449 126.40991211 72.97420898 127.13623047 73.47607422 C154.5270988 92.49974539 181.06000758 113.5334499 205.74609375 135.9609375 C207.7688269 137.79086247 209.81369435 139.58881728 211.875 141.375 C221.39993389 149.68559969 230.5852426 158.38452023 239.7890625 167.046875 C242.60482369 169.69592212 245.43378346 172.32971457 248.2734375 174.953125 C257.32596134 183.34417374 265.93735435 192.01716198 274.27294922 201.12011719 C275.93264985 202.92668983 277.60585505 204.71946577 279.28515625 206.5078125 C284.69191201 212.28001476 289.84437805 218.1592248 294.796875 224.33203125 C297.06927818 227.08389538 299.44694831 229.69738143 301.875 232.3125 C306.13977998 236.94698227 310.04720813 241.76873955 313.8984375 246.74414062 C316.81219201 250.50501196 319.80020064 254.18045545 322.875 257.8125 C328.54170486 264.56621428 333.85504798 271.57303318 339.17578125 278.60058594 C341.10670784 281.14035394 343.05195733 283.66865255 345 286.1953125 C352.36839722 295.76775156 359.57363755 305.38916228 366.28369141 315.43505859 C367.99398356 317.99100872 369.7147716 320.53973082 371.43684387 323.0877533 C380.94141159 337.16176508 390.28706488 351.27075709 398.80859375 365.96972656 C399.94870958 367.91259607 401.1220488 369.82984504 402.3125 371.7421875 C402.9725 372.81726563 403.6325 373.89234375 404.3125 375 C404.86550781 375.886875 405.41851563 376.77375 405.98828125 377.6875 C407 380 407 380 406.78295898 382.00097656 C405.78811709 384.54097202 404.87440978 385.0344584 402.484375 386.296875 C401.73849121 386.69430908 400.99260742 387.09174316 400.22412109 387.5012207 C398.99943115 388.11936646 398.99943115 388.11936646 397.75 388.75 C396.9038916 389.18465576 396.0577832 389.61931152 395.18603516 390.06713867 C385.74115192 394.80343671 375.98389566 398.57008399 366 402 C364.91452881 402.37680908 364.91452881 402.37680908 363.80712891 402.76123047 C355.00073402 405.75627768 346.10017925 407.67650167 336.9375 409.25 C335.52053833 409.49508301 335.52053833 409.49508301 334.07495117 409.74511719 C325.74869882 411.07845474 317.41172385 411.59733261 309 412 C308.0739798 412.04844055 307.14795959 412.0968811 306.19387817 412.14678955 C299.77165151 412.47638828 293.35418728 412.70374647 286.92504883 412.84448242 C284.66992874 412.9068654 282.41540214 412.99606154 280.16235352 413.11108398 C261.91705177 414.01932854 261.91705177 414.01932854 257.17489624 410.73657227 C254.17062853 407.52507285 252.43255888 403.81825897 250.77859497 399.78213501 C249.66124307 397.22461535 248.11786866 395.07136695 246.48046875 392.8203125 C245.93970703 392.0454248 245.39894531 391.27053711 244.84179688 390.47216797 C244.02291992 389.31031982 244.02291992 389.31031982 243.1875 388.125 C242.59130859 387.27695801 241.99511719 386.42891602 241.38085938 385.55517578 C235.74760234 377.57971703 229.94114284 369.74810931 224 362 C223.15671143 360.89760986 223.15671143 360.89760986 222.29638672 359.77294922 C215.56121079 350.98543152 208.71729995 342.33028667 201.5 333.93359375 C199.17375425 331.20388975 196.92573847 328.42691249 194.6875 325.625 C189.81228577 319.62541203 184.5134743 314.04840755 179.2109375 308.4296875 C176.90718226 305.98400096 174.66976603 303.5037715 172.5 300.9375 C168.59073519 296.37501613 164.2609301 292.21187052 159.97265625 288.00952148 C156.73461133 284.81848911 153.82663705 281.56855264 151 278 C149.82311258 276.9027709 148.61454246 275.83841919 147.375 274.8125 C144.09235099 272.01187566 141.03023989 269.07219705 138 266 C134.4882345 262.45081843 130.90991099 259.08031543 127.1171875 255.8359375 C124.59400545 253.6479383 122.14445481 251.38706887 119.6875 249.125 C115.24749216 245.07478708 110.68065719 241.24465878 106.00390625 237.47265625 C102.50332522 234.59116367 99.09742675 231.61255438 95.6875 228.625 C89.25761624 223.01355357 82.65817144 217.68240461 75.90136719 212.47167969 C73.85647509 210.8889101 71.8221568 209.29320476 69.7890625 207.6953125 C65.21307419 204.1035762 60.61367725 200.54317069 56 197 C54.9486084 196.19103271 54.9486084 196.19103271 53.87597656 195.36572266 C26.7562787 174.62302441 -2.08431582 156.43472561 -32.44384766 140.85693359 C-34 140 -34 140 -35 139 C-35.08660149 131.20586565 -32.72131082 123.74440442 -30.63867188 116.31689453 C-29.39578126 111.80809027 -28.23627037 107.27718632 -27.0625 102.75 C-26.54326529 100.75513112 -26.02373493 98.76033918 -25.50390625 96.765625 C-25.25012207 95.79173828 -24.99633789 94.81785156 -24.73486328 93.81445312 C-23.66266175 89.70802812 -22.58201146 85.60384921 -21.5 81.5 C-19.65548538 74.50289815 -17.8246738 67.50230147 -16 60.5 C-13.9779518 52.74026172 -11.94626133 44.98317584 -9.90112305 37.22949219 C-8.73532801 32.80592949 -7.57719355 28.38045505 -6.42578125 23.953125 C-6.15765625 22.92251953 -5.88953125 21.89191406 -5.61328125 20.83007812 C-5.09301756 18.82896632 -4.57344694 16.82767416 -4.0546875 14.82617188 C-2.76460353 9.86457864 -1.434414 4.92187554 0 0 Z " fill="#FEFEFE" transform="translate(395,485)"/>
<path d="M0 0 C5.79487725 3.16225828 11.12409441 6.80066219 16.5 10.625 C22.46542733 14.84037268 28.45016764 19.00068711 34.5625 23 C47.57719604 31.56842605 60.1110798 40.92917554 72 51 C73.06605475 51.89234718 74.13248115 52.78425048 75.19921875 53.67578125 C81.05275302 58.58230735 86.8263387 63.56094007 92.47167969 68.70727539 C94.0309028 70.12120589 95.59759918 71.52700552 97.17626953 72.91918945 C104.00541577 78.95843552 110.47358155 85.32015374 116.90551758 91.77514648 C118.6917467 93.5667595 120.48329347 95.35293055 122.27539062 97.13867188 C137.85302588 112.70605176 137.85302588 112.70605176 140 117 C83.57 117 27.14 117 -31 117 C-28.75381633 104.64598982 -28.75381633 104.64598982 -27.51953125 100.44140625 C-27.24616943 99.49297852 -26.97280762 98.54455078 -26.69116211 97.56738281 C-26.40120361 96.57577148 -26.11124512 95.58416016 -25.8125 94.5625 C-23.16676538 85.33341994 -20.72590383 76.07395369 -18.4375 66.75 C-16.23407541 57.78802354 -13.88458472 48.90070488 -11.27807617 40.0480957 C-8.69801433 31.18112523 -6.52067691 22.21526768 -4.359375 13.23828125 C-4.0809375 12.09617187 -3.8025 10.9540625 -3.515625 9.77734375 C-3.27102539 8.75890381 -3.02642578 7.74046387 -2.77441406 6.69116211 C-2.07364883 4.25593664 -1.22149414 2.21140512 0 0 Z " fill="#FDFDFD" transform="translate(318,780)"/>
</svg>
