<?xml version="1.0" encoding="UTF-8"?>
<svg version="1.1" xmlns="http://www.w3.org/2000/svg" width="4161" height="900">
<path d="M0 0 C37.30013267 -0.06628204 74.60020927 -0.12161819 111.9003841 -0.15319599 C116.31575096 -0.15694758 120.7311177 -0.1608306 125.14648438 -0.16479492 C126.0254109 -0.16558185 126.90433742 -0.16636878 127.80989808 -0.16717956 C141.99419618 -0.18019177 156.17845737 -0.20382224 170.36273366 -0.23145839 C184.94452727 -0.25962961 199.5263017 -0.27620087 214.1081214 -0.28226548 C223.08754488 -0.28635778 232.06686398 -0.29922669 241.04625529 -0.3237494 C247.2249232 -0.3397517 253.40353808 -0.34436805 259.58222514 -0.34050413 C263.13353698 -0.3386048 266.68466797 -0.3412687 270.23594666 -0.35761642 C323.48809977 -0.56622956 375.48327909 12.23392107 414.52099609 50.55175781 C415.96357299 51.96433063 417.42882755 53.3536261 418.89453125 54.7421875 C448.51187884 83.3239635 466.54604032 125.50031658 470.52883911 166.18682861 C470.66181239 167.53855604 470.66181239 167.53855604 470.797472 168.91759109 C470.86430624 169.60478603 470.93114048 170.29198097 471 171 C471.55308366 170.99723462 472.10616732 170.99446924 472.67601109 170.99162006 C486.2004655 170.92505731 499.72489079 170.87576543 513.24947453 170.84456348 C519.79015812 170.828963 526.33072274 170.80782799 532.87133789 170.77368164 C539.19317722 170.74088711 545.51490272 170.72310482 551.8368206 170.71536827 C554.23873115 170.70986066 556.64063606 170.69910649 559.04249763 170.68280983 C577.81248667 170.56061616 595.61598083 170.54413685 611.375 182.3125 C628.47337156 199.81797564 627.14681512 224.08372998 627.15771484 246.80688477 C627.16239053 249.00440064 627.16753533 251.20191555 627.17311096 253.39942932 C627.18434099 258.11371837 627.19279961 262.82800128 627.19923019 267.54229927 C627.20997212 275.01299979 627.23023351 282.48365602 627.25234985 289.95433044 C627.28282798 300.4426121 627.31206187 310.93089527 627.33789062 321.41918945 C627.3403479 322.41535299 627.3403479 322.41535299 627.34285481 323.43164103 C627.36910465 334.17833514 627.3877722 344.92503264 627.40448253 355.67174519 C627.42198039 366.7475086 627.45109093 377.82320393 627.4893719 388.89891475 C627.51033604 395.10050657 627.52588411 401.3020044 627.52817917 407.5036335 C627.53034324 413.34375703 627.54639003 419.1836847 627.57256889 425.0237484 C627.57969606 427.15240521 627.58189535 429.28108591 627.57846642 431.40975189 C627.54641527 455.11381689 629.22204519 482.97820385 646.26171875 501.3828125 C659.44276212 513.64562589 676.08615824 517.411379 693.625 517.3125 C695.19205688 517.30512817 695.19205688 517.30512817 696.79077148 517.29760742 C727.01968468 516.84532183 754.05961009 504.53151446 775.27294922 483.15161133 C780.90851992 477.26173401 785.56822711 470.82387699 790 464 C790.62390625 463.06027344 791.2478125 462.12054687 791.890625 461.15234375 C800.57858476 447.23986764 806.13797752 430.88513066 810 415 C810.2702084 413.8891891 810.2702084 413.8891891 810.54587555 412.75593758 C815.72949253 390.00142165 814.6114897 366.42386806 814.60750484 343.24268031 C814.61066721 337.17155103 814.63635338 331.10051432 814.65948486 325.0294342 C814.69979671 313.57320247 814.72032674 302.1170273 814.73345876 290.66073567 C814.75240633 275.15143913 814.80250237 259.64224367 814.85070229 244.13301563 C814.92565533 219.75534909 814.95950194 195.37780457 815 171 C851.3 171 887.6 171 925 171 C925.01981934 180.85866943 925.03963867 190.71733887 925.06005859 200.87475586 C925.1248706 232.42119749 925.19940345 263.96760946 925.28005161 295.51401442 C925.29257043 300.41437205 925.30500322 305.3147299 925.31738281 310.21508789 C925.31984881 311.19065813 925.3223148 312.16622836 925.32485552 313.17136133 C925.36457577 328.96622933 925.39732637 344.76110447 925.42749982 360.55599325 C925.45861732 376.76382605 925.49722803 392.97162851 925.54279006 409.17942721 C925.57066663 419.17993638 925.5927033 429.18042338 925.60726251 439.18096096 C925.6178072 446.03933553 925.63563243 452.89766714 925.65916704 459.75600933 C925.67252928 463.71248203 925.68269656 467.66889454 925.68421364 471.62539101 C925.68567479 475.25090357 925.69632209 478.8762713 925.71413441 482.50173933 C925.72124707 484.42769972 925.71865453 486.35368849 925.71566427 488.27965969 C925.63115829 499.98666995 925.63115829 499.98666995 930.25 510.4375 C941.64665412 521.05710952 968.82881482 515.76484141 978 516 C978 546.69 978 577.38 978 609 C952.43731885 609.08021762 952.43731885 609.08021762 941.45703125 609.09765625 C933.99394857 609.10956554 926.53091543 609.12358363 919.06787109 609.15087891 C913.04429078 609.17276912 907.02076366 609.18460243 900.99714661 609.18975449 C898.71050683 609.19342141 896.42386964 609.20058108 894.13725281 609.21146011 C872.8934396 609.30842019 851.99491921 609.29063083 833.8125 596.8125 C824.17583568 587.17583568 819.0631312 575.56624136 818.88647461 561.90063477 C818.88663049 560.41421586 818.89213295 558.9277901 818.90234375 557.44140625 C818.9037587 556.65225327 818.90517365 555.86310028 818.90663147 555.05003357 C818.91218445 552.55414885 818.92472792 550.05835715 818.9375 547.5625 C818.94252109 545.86002735 818.94708293 544.15755327 818.95117188 542.45507812 C818.96213842 538.30335012 818.97937009 534.15169078 819 530 C818.32469238 531.2847522 818.32469238 531.2847522 817.63574219 532.59545898 C810.36204556 546.29399678 801.74633627 557.86486719 791 569 C790.22269531 569.84046875 789.44539063 570.6809375 788.64453125 571.546875 C777.26786966 583.51428452 763.62287488 592.50603988 749 600 C748.32356445 600.35046387 747.64712891 600.70092773 746.95019531 601.06201172 C704.74805799 622.68138722 652.01658537 625.11815834 607 611 C591.57240836 605.8999697 577.5802935 598.24993523 565 588 C564.22269531 587.38769531 563.44539063 586.77539062 562.64453125 586.14453125 C538.51207993 566.11246104 526.3803054 534.01572471 520.75 504.0625 C520.52328613 502.86898926 520.52328613 502.86898926 520.29199219 501.65136719 C517.43449434 485.19656582 516.70264104 468.58389726 516.72875977 451.91845703 C516.72435627 450.01540915 516.71904833 448.11236318 516.71292114 446.20932007 C516.70155614 442.16140701 516.69597193 438.11354534 516.69503975 434.06561661 C516.69307643 427.66022356 516.67490716 421.25493535 516.65428162 414.84957886 C516.60542706 398.96228931 516.57414814 383.07497212 516.55297852 367.18762207 C516.53644809 354.79067516 516.51367058 342.39382065 516.46995777 329.99693573 C516.44822163 323.63215506 516.44011934 317.26755022 516.44235051 310.90273499 C516.44068352 306.95159539 516.42663632 303.00057102 516.40913773 299.04947281 C516.40354261 297.22053872 516.40304894 295.3915807 516.40807533 293.56264496 C516.41422414 291.0633203 516.40197304 288.56472175 516.38526917 286.06546021 C516.39148098 285.34533064 516.3976928 284.62520108 516.40409285 283.8832494 C516.34248722 278.81310059 515.2986324 275.42827227 513 271 C509.11096431 267.30541609 506.0258242 265.90375592 500.7121582 265.79467773 C499.85149246 265.77473251 498.99082672 265.75478729 498.1040802 265.73423767 C497.17899155 265.71752518 496.25390289 265.70081268 495.30078125 265.68359375 C493.87550362 265.6524221 493.87550362 265.6524221 492.4214325 265.62062073 C489.38519544 265.55521948 486.34887169 265.49628396 483.3125 265.4375 C481.25454831 265.39430583 479.19660541 265.35069124 477.13867188 265.30664062 C472.09253684 265.19954769 467.04631457 265.09825354 462 265 C461.87452286 265.59566772 461.74904572 266.19133545 461.61976624 266.80505371 C460.7476221 270.85280964 459.88521919 274.79132962 458.37109375 278.65625 C458.06324951 279.44225586 457.75540527 280.22826172 457.43823242 281.03808594 C457.10799072 281.85051758 456.77774902 282.66294922 456.4375 283.5 C455.91023315 284.7998584 455.91023315 284.7998584 455.37231445 286.12597656 C436.76322336 331.0373943 401.49771465 365.73406865 356.90136719 384.83447266 C332.74065066 394.5402334 307.16264705 399.19545757 281.18481445 399.11352539 C279.93455317 399.11364593 278.6842919 399.11376646 277.39614391 399.11389065 C274.04863455 399.1132722 270.70118899 399.10836621 267.3536911 399.10128021 C264.19945889 399.09553727 261.04522802 399.0953145 257.89099121 399.09460449 C248.69815606 399.08938073 239.50532755 399.07541946 230.3125 399.0625 C209.749375 399.041875 189.18625 399.02125 168 399 C168 468.3 168 537.6 168 609 C130.71 609 93.42 609 55 609 C55 439.71 55 270.42 55 96 C36.85 96 18.7 96 0 96 C0 64.32 0 32.64 0 0 Z M169 96 C169 163.98 169 231.96 169 302 C253.86082578 308.74416771 253.86082578 308.74416771 330.02734375 275.09375 C344.80840265 260.00932235 353.2598815 238.74205984 356 218 C356.11085938 217.19175781 356.22171875 216.38351562 356.3359375 215.55078125 C359.76835059 185.26205494 354.89290351 152.67438948 335.6875 128.1875 C319.20466986 109.22943257 297.94795036 98.58025478 273 96 C264.87270005 95.51675712 256.72728605 95.6476372 248.58984375 95.70703125 C246.54203538 95.71145482 244.49422359 95.7145075 242.44641113 95.71618652 C234.94338825 95.73176781 227.44043849 95.7736508 219.9375 95.8125 C194.7234375 95.9053125 194.7234375 95.9053125 169 96 Z " fill="#00034D" transform="translate(1763,281)"/>
<path d="M0 0 C28.67685924 -0.12049101 28.67685924 -0.12049101 42.9186058 -0.1507616 C50.59781258 -0.16733721 58.27692078 -0.18832695 65.95605469 -0.22631836 C72.69285867 -0.25963159 79.42953395 -0.27688641 86.1664238 -0.28463173 C88.72825166 -0.29014683 91.29007412 -0.30091601 93.85185623 -0.31719017 C134.98552125 -0.5679515 134.98552125 -0.5679515 150 14 C162.84085 28.87102392 163.30299465 47.00755849 163.25828552 65.66278076 C163.26114386 67.54422154 163.26488387 69.42566115 163.26942402 71.30709863 C163.27936333 76.45227871 163.27704272 81.59739028 163.27269709 86.74257541 C163.27021343 92.30085975 163.27929851 97.85912642 163.28707886 103.41740417 C163.29910513 113.04106707 163.30423079 122.66471343 163.30496025 132.28838348 C163.30628745 146.21119783 163.32141211 160.13397209 163.34045542 174.05677226 C163.37127405 196.6587747 163.39548027 219.2607772 163.41333008 241.86279297 C163.41386687 242.53850569 163.41440366 243.2142184 163.41495672 243.91040726 C163.42745806 259.68341423 163.43823954 275.45642168 163.44702148 291.22943115 C163.45009181 296.70585125 163.45318405 302.18227133 163.45629883 307.65869141 C163.45668064 308.33464403 163.45706246 309.01059664 163.45745584 309.70703268 C163.47063236 332.91315259 163.49530137 356.11924226 163.53004223 379.32534146 C163.55033963 393.216022 163.5606206 407.10664028 163.55805302 420.99733576 C163.55701891 430.50938012 163.56663949 440.02137519 163.58469205 449.53340235 C163.59474725 455.02298352 163.59985403 460.51245565 163.59192467 466.00204277 C163.58475316 471.02657744 163.59131198 476.05089959 163.60881007 481.07540718 C163.61269648 482.89347932 163.61151055 484.71157082 163.60475319 486.52963457 C163.59629536 489.00109008 163.60629226 491.47182142 163.62082577 493.94323349 C163.61055318 495.00152984 163.61055318 495.00152984 163.60007307 496.0812059 C163.65763112 501.0920674 164.59821804 505.59625317 167 510 C179.94808879 520.74415878 199.90598912 515.60278919 215 516 C215 546.69 215 577.38 215 609 C187.36057383 609.12032643 187.36057383 609.12032643 175.515625 609.14648438 C167.4553423 609.1643692 159.39516167 609.18499634 151.33496094 609.22631836 C144.83157859 609.25908128 138.32830673 609.27688864 131.82484818 609.28463173 C129.35233447 609.29014494 126.87982633 609.30091033 124.40736008 609.31719017 C86.86381521 609.55440587 86.86381521 609.55440587 71.51953125 596.96484375 C61.60854585 586.7191534 59.97244914 574.21796987 59.4375 560.625 C59.39431641 559.60277344 59.35113281 558.58054687 59.30664062 557.52734375 C59.20112208 555.01834712 59.09900787 552.50926057 59 550 C58.47792969 550.79921875 57.95585938 551.5984375 57.41796875 552.421875 C51.93231439 560.66490232 45.86384573 567.87888869 39 575 C38.03513672 576.05960938 38.03513672 576.05960938 37.05078125 577.140625 C13.43500755 602.34444421 -25.13051119 617.46891474 -59.24519348 619.10786438 C-61.5453773 619.16298668 -63.84372095 619.19071037 -66.14453125 619.203125 C-66.99440109 619.20882507 -67.84427094 619.21452515 -68.71989441 619.22039795 C-70.51238792 619.22978568 -72.30489821 619.23635692 -74.09741211 619.24023438 C-76.76774483 619.24983902 -79.43727233 619.28088013 -82.10742188 619.3125 C-97.69194074 619.40857413 -113.0157842 617.68362962 -128.125 613.75 C-129.34654785 613.43639526 -129.34654785 613.43639526 -130.59277344 613.11645508 C-174.99324923 601.24340715 -213.786169 571.16838089 -236.8984375 531.51171875 C-237.9419619 529.6797537 -238.97146244 527.84041103 -240 526 C-240.50756836 525.11610596 -240.50756836 525.11610596 -241.02539062 524.21435547 C-261.2782768 488.90734023 -271.27358556 445.47046909 -272 405 C-272.02046387 403.98566895 -272.04092773 402.97133789 -272.06201172 401.92626953 C-273.15921114 337.78997638 -259.74363971 270.37967712 -214.93359375 221.7578125 C-213.3200631 220.133827 -211.6774998 218.55736055 -210 217 C-208.7934375 215.7934375 -208.7934375 215.7934375 -207.5625 214.5625 C-206.716875 213.716875 -205.87125 212.87125 -205 212 C-204.49726562 211.45085937 -203.99453125 210.90171875 -203.4765625 210.3359375 C-173.38166635 178.4011787 -125.74402311 162.558289 -82.83056641 160.87573242 C-41.21068123 159.86541956 2.04311925 166.65482477 35 194 C35.88300781 194.73089844 36.76601562 195.46179688 37.67578125 196.21484375 C41.96992359 199.92253266 45.62882155 203.71949329 49.15917969 208.16430664 C49.87869812 209.06870987 50.59821655 209.9731131 51.33953857 210.90492249 C51.88749084 211.59629807 52.43544312 212.28767365 53 213 C52.93876478 199.30007914 52.86164069 185.6003484 52.76428509 171.90063381 C52.71957603 165.53915615 52.68032082 159.17774262 52.65356445 152.81616211 C52.62753722 146.67578607 52.58713825 140.53565672 52.53681374 134.39543343 C52.52014123 132.05394626 52.50862936 129.71241642 52.50238609 127.37087822 C52.49274952 124.08870516 52.46469419 120.80716379 52.43237305 117.52514648 C52.43452568 116.07612946 52.43452568 116.07612946 52.4367218 114.59783936 C52.35850182 108.97363391 51.71097748 104.96437984 49 100 C35.2159286 87.22451919 24.49814286 94.58328912 0 94 C0 62.98 0 31.96 0 0 Z M-122 283 C-122.66515625 283.58265625 -123.3303125 284.1653125 -124.015625 284.765625 C-149.8636987 308.68113244 -159.24826342 347.69719344 -160.875 381.4375 C-162.16994204 420.35263609 -154.27209651 464.44311379 -126.9375 494 C-124.99013467 496.03343165 -123.0049327 498.02350606 -121 500 C-119.89398437 501.12148438 -119.89398437 501.12148438 -118.765625 502.265625 C-101.26417015 518.97754053 -76.83698553 526.57481351 -53.04467773 526.34936523 C-24.62563721 525.59374406 -0.22536787 515.97946674 20 496 C20.64195312 495.43023438 21.28390625 494.86046875 21.9453125 494.2734375 C45.17304043 473.20642845 54.11283186 436.0414884 56 406 C56.1839022 400.707743 56.24554905 395.41981673 56.25 390.125 C56.25067474 389.39867371 56.25134949 388.67234741 56.25204468 387.92401123 C56.23415947 375.74635723 55.52954394 363.93815275 53 352 C52.83371094 351.21061035 52.66742187 350.4212207 52.49609375 349.60791016 C47.4704385 326.7272186 38.24683995 305.88128314 23 288 C22.55785156 287.41347656 22.11570312 286.82695313 21.66015625 286.22265625 C8.69375044 269.47273994 -14.67781521 258.18683318 -35.32421875 255.28125 C-68.87437733 252.71418154 -96.97879119 260.19061075 -122 283 Z " fill="#00034D" transform="translate(1541,281)"/>
<path d="M0 0 C45.62357126 -0.0661703 91.24709716 -0.12154976 136.87070269 -0.15319599 C142.26031881 -0.15694799 147.64993482 -0.16083096 153.03955078 -0.16479492 C154.11249975 -0.16558185 155.18544872 -0.16636878 156.2909113 -0.16717956 C173.65055931 -0.18022378 191.01017744 -0.2038722 208.36980774 -0.23145839 C226.19016903 -0.25953997 244.0105147 -0.27618208 261.83089721 -0.28226548 C272.82181103 -0.28637621 283.81264037 -0.29934693 294.80352817 -0.3237494 C302.34639663 -0.33964057 309.88922158 -0.34439271 317.43210556 -0.34050413 C321.78011996 -0.33858785 326.12798701 -0.34146888 330.47597504 -0.35761642 C334.4650636 -0.37232209 338.45390709 -0.37288399 342.44300745 -0.36269668 C343.87797611 -0.36143946 345.31296069 -0.3651542 346.74789847 -0.37464955 C362.81894431 -0.47471909 379.80226649 1.96396015 392.0625 13.375 C402.46521818 25.16300477 405.17017465 40.30411022 405.11352539 55.52514648 C405.11367142 56.56004715 405.11381744 57.59494781 405.1139679 58.66120911 C405.11327407 62.06452569 405.10550652 65.46778679 405.09765625 68.87109375 C405.09579019 71.23763499 405.09436717 73.60417662 405.09336853 75.97071838 C405.08955818 82.18656488 405.07974056 88.40238786 405.06866455 94.6182251 C405.05661575 102.08311222 405.05204113 109.54800723 405.04621124 117.01290131 C405.03652801 128.34195054 405.01736105 139.67094821 405 151 C371.34 151 337.68 151 303 151 C302.67 136.81 302.34 122.62 302 108 C298.95267307 101.88990521 298.95267307 101.88990521 294 98 C291.03385769 97.0112859 289.0657338 96.86387374 285.96968079 96.84178162 C284.93277509 96.83200759 283.89586939 96.82223356 282.8275423 96.81216335 C281.68602805 96.8063931 280.5445138 96.80062284 279.3684082 96.79467773 C278.14884776 96.78464501 276.92928732 96.77461229 275.6727705 96.76427555 C273.04381406 96.74338662 270.41491821 96.72424337 267.78593445 96.70826721 C264.01817976 96.68493974 260.25049657 96.65686089 256.48278809 96.6270752 C247.42606407 96.55856359 238.36927737 96.4985518 229.3125 96.4375 C209.079375 96.293125 188.84625 96.14875 168 96 C168 152.43 168 208.86 168 267 C232.02 267 296.04 267 362 267 C362 298.68 362 330.36 362 363 C297.98 363 233.96 363 168 363 C168 444.18 168 525.36 168 609 C130.71 609 93.42 609 55 609 C55 439.71 55 270.42 55 96 C36.85 96 18.7 96 0 96 C0 64.32 0 32.64 0 0 Z " fill="#00034D" transform="translate(0,281)"/>
<path d="M0 0 C1.43771759 -0.00855011 1.43771759 -0.00855011 2.90447998 -0.01727295 C4.92817094 -0.02667134 6.95187686 -0.03323625 8.97558594 -0.03710938 C11.99703564 -0.04671653 15.01777472 -0.07774883 18.0390625 -0.109375 C35.30578346 -0.20430677 52.11039305 1.5591223 68.859375 5.890625 C69.85412842 6.14553711 70.84888184 6.40044922 71.8737793 6.66308594 C118.15284271 19.0100701 155.14598163 49.11340468 179.36352539 90.05932617 C197.03545635 120.90340868 206.92068058 158.05644043 206.96484375 193.57421875 C206.96817215 194.53602554 206.97150055 195.49783234 206.97492981 196.48878479 C206.9799611 198.51489794 206.98233932 200.54101928 206.98217773 202.56713867 C206.98434706 205.60154623 207.00249662 208.63557921 207.02148438 211.66992188 C207.02442283 213.65885296 207.0264046 215.64778572 207.02734375 217.63671875 C207.03452927 218.51347763 207.04171478 219.39023651 207.04911804 220.29356384 C207.01624498 229.77354038 205.80728988 238.60418368 204.796875 248.203125 C105.466875 248.203125 6.136875 248.203125 -96.203125 248.203125 C-88.77256667 285.35591667 -76.48747733 319.67810535 -43.828125 341.578125 C-9.96909608 363.33336268 29.64533315 369.03410153 68.80615234 360.55126953 C101.53758803 352.87030653 129.7436548 337.01813162 155.796875 316.203125 C159.88283606 319.78429367 162.28262049 324.06543505 164.984375 328.703125 C166.05246185 330.50966095 167.12152936 332.31561734 168.19140625 334.12109375 C169.05693115 335.58554932 169.05693115 335.58554932 169.93994141 337.07958984 C173.31049754 342.74917901 176.74400667 348.38058809 180.171875 354.015625 C180.8941088 355.20406156 181.61627677 356.39253813 182.33837891 357.58105469 C184.49022182 361.12234664 186.64331686 364.66287591 188.796875 368.203125 C189.14909119 368.78213562 189.50130737 369.36114624 189.86419678 369.95770264 C194.17310422 377.04071911 198.4840096 384.12251789 202.796875 391.203125 C198.84755807 396.16410754 194.72486545 400.15528009 189.609375 403.890625 C188.57115601 404.65536133 188.57115601 404.65536133 187.51196289 405.43554688 C158.18750776 426.73391465 125.08802806 442.69480536 89.796875 451.203125 C89.00506836 451.39455078 88.21326172 451.58597656 87.39746094 451.78320312 C55.49189908 459.26738478 21.27255076 460.79826246 -11.203125 456.203125 C-12.54165527 456.0177417 -12.54165527 456.0177417 -13.90722656 455.82861328 C-36.48239521 452.58505457 -58.38608135 446.55101298 -79.203125 437.203125 C-80.42177246 436.65664307 -80.42177246 436.65664307 -81.66503906 436.09912109 C-99.57157949 427.92041614 -116.44810905 417.27185341 -131.203125 404.203125 C-132.40001953 403.16865234 -132.40001953 403.16865234 -133.62109375 402.11328125 C-136.19202587 399.8529864 -138.70469757 397.54333096 -141.203125 395.203125 C-141.94151611 394.51573242 -141.94151611 394.51573242 -142.69482422 393.81445312 C-151.992409 385.0876456 -159.77257517 375.54995281 -167.203125 365.203125 C-167.65284668 364.58211914 -168.10256836 363.96111328 -168.56591797 363.32128906 C-205.26214281 312.16055455 -215.5844145 245.68026857 -205.9375 184.35791016 C-201.63307765 159.09980281 -194.35861794 134.74342933 -182.22412109 112.109375 C-181.54164222 110.83515332 -180.86750463 109.55642988 -180.20166016 108.2734375 C-171.173283 90.8886842 -159.37827727 75.64230225 -145.66894531 61.69970703 C-144.44104275 60.44603569 -143.23703285 59.16902276 -142.0390625 57.88671875 C-106.95999907 20.94174769 -50.20900998 0.23871879 0 0 Z M-59.203125 111.203125 C-60.11449219 112.02296875 -61.02585937 112.8428125 -61.96484375 113.6875 C-78.41814515 129.19995711 -87.73504333 149.54110917 -93.203125 171.203125 C-93.203125 171.533125 -93.203125 171.863125 -93.203125 172.203125 C-31.163125 172.203125 30.876875 172.203125 94.796875 172.203125 C94.796875 149.64169228 86.71599287 128.16293551 71.796875 111.203125 C71.13042969 110.44128906 70.46398438 109.67945313 69.77734375 108.89453125 C56.2886331 94.45485399 36.99127578 85.80517555 17.30859375 84.98828125 C-10.70881387 84.24397016 -38.31738504 91.82526488 -59.203125 111.203125 Z " fill="#00034D" transform="translate(3522.203125,441.796875)"/>
<path d="M0 0 C1.12825195 0.01885254 1.12825195 0.01885254 2.27929688 0.03808594 C55.20150501 1.0965301 103.94832487 18.71957708 141.1875 56.87890625 C180.39870835 99.44590338 195.91661427 158.99635952 194.13867188 215.79980469 C193.05647841 240.77408638 193.05647841 240.77408638 191 249 C91.67 249 -7.66 249 -110 249 C-103.91966688 276.36149903 -97.86495484 299.525657 -80 321 C-79.23042969 321.93328125 -78.46085938 322.8665625 -77.66796875 323.828125 C-61.92546244 342.03755071 -40.75222712 353.21295559 -17.875 359.75 C-17.18365967 359.94883789 -16.49231934 360.14767578 -15.7800293 360.35253906 C-4.08193801 363.52351999 7.54131543 364.37961862 19.625 364.3125 C20.67731308 364.30926727 20.67731308 364.30926727 21.75088501 364.30596924 C33.05840548 364.25040403 43.97201638 363.64040206 55 361 C56.22855713 360.70996094 56.22855713 360.70996094 57.48193359 360.4140625 C86.70356914 353.28065891 115.24905091 339.1661441 138.0546875 319.42578125 C140.09457326 317.93068426 141.56378446 317.53290236 144 317 C145.72705503 319.84456122 147.454108 322.6891237 149.18115234 325.53369141 C150.70356863 328.0412055 152.22603539 330.54868894 153.74853516 333.05615234 C157.30575691 338.91476539 160.86290916 344.77341996 164.41824341 350.63317871 C165.1551317 351.84754499 165.89217088 353.06181973 166.62936401 354.27600098 C168.42283288 357.23009118 170.21421158 360.18540416 172.00097656 363.14355469 C175.1411971 368.33666814 178.30497296 373.50891309 181.58203125 378.6171875 C182.1126416 379.4529834 182.64325195 380.2887793 183.18994141 381.14990234 C184.15653325 382.66676135 185.13584323 384.17562519 186.13037109 385.67431641 C189.11348458 390.38028518 189.11348458 390.38028518 188.6015625 393.17578125 C181.26398378 401.53346237 171.22750327 407.92605982 162 414 C160.56333984 414.94939453 160.56333984 414.94939453 159.09765625 415.91796875 C119.67736975 441.04127881 72.41835214 457.98706342 25.33203125 458.203125 C24.33531906 458.20882507 23.33860687 458.21452515 22.31169128 458.22039795 C20.20821167 458.22979091 18.10471772 458.23635904 16.0012207 458.24023438 C12.86576739 458.24983687 9.73100033 458.28087276 6.59570312 458.3125 C-39.38082201 458.55362218 -88.37517948 446.19143471 -126 419 C-126.63405762 418.54802246 -127.26811523 418.09604492 -127.92138672 417.63037109 C-136.57866285 411.43478161 -144.77234688 404.9367102 -152.42675781 397.52197266 C-153.53196446 396.45278298 -154.64391845 395.3905453 -155.76074219 394.33349609 C-195.57834634 356.59998012 -220.45824472 300.76305788 -222.20556641 245.80883789 C-222.32738224 240.18486975 -222.33448606 234.56252287 -222.3125 228.9375 C-222.31034485 227.94421692 -222.3081897 226.95093384 -222.30596924 225.92755127 C-222.25436672 211.09794127 -221.82529574 196.59863057 -219 182 C-218.80132324 180.93797363 -218.60264648 179.87594727 -218.39794922 178.78173828 C-211.49413101 142.74225579 -197.86194013 108.89815022 -175 80 C-174.56751953 79.45182617 -174.13503906 78.90365234 -173.68945312 78.33886719 C-162.43414699 64.23165265 -149.63138332 51.57463028 -135 41 C-134.43941895 40.58975586 -133.87883789 40.17951172 -133.30126953 39.75683594 C-95.03110735 12.04963339 -46.95734829 -1.00776044 0 0 Z M-78 115 C-90.99522921 129.58158792 -106 151.7749108 -106 172 C-44.29 172 17.42 172 81 172 C81.00598606 161.95680634 81.00598606 161.95680634 79.4375 152.3125 C79.26186523 151.54921387 79.08623047 150.78592773 78.90527344 149.99951172 C73.87168216 129.53098383 61.66097048 109.19400299 43.7109375 97.5859375 C4.87378998 74.86564659 -46.51527757 82.35276474 -78 115 Z " fill="#00034D" transform="translate(846,442)"/>
<path d="M0 0 C3.13488079 0.00314528 6.26880034 -0.02034422 9.40356445 -0.0456543 C27.81321023 -0.10367375 46.13591548 1.50684946 64.10083008 5.69067383 C65.04249023 5.90344971 65.98415039 6.11622559 66.9543457 6.33544922 C96.58144816 13.1994652 128.36289236 25.40738829 146.28442383 51.36645508 C154.47494192 64.66503822 157.59356283 77.67420136 157.39379883 93.17504883 C157.39077759 94.30313965 157.38775635 95.43123047 157.38464355 96.59350586 C157.36911385 100.75099014 157.3272319 104.90834255 157.28833008 109.06567383 C157.22645508 118.38817383 157.16458008 127.71067383 157.10083008 137.31567383 C125.09083008 137.31567383 93.08083008 137.31567383 60.10083008 137.31567383 C59.77083008 128.40567383 59.44083008 119.49567383 59.10083008 110.31567383 C52.90821375 97.93044116 44.78232211 93.43981158 32.03833008 89.12817383 C9.23404644 82.56694134 -17.42845256 84.02645992 -38.89916992 94.31567383 C-47.36973757 99.11409788 -53.54267698 104.83440802 -56.83666992 114.12817383 C-59.22252704 123.54224858 -57.21266845 131.20601806 -52.61010742 139.60083008 C-37.43286617 163.68343891 2.08812706 172.93782558 27.19345093 182.34359741 C67.0552146 197.28775778 107.00733048 212.46708486 139.10083008 241.31567383 C139.8252832 241.95633789 140.54973633 242.59700195 141.29614258 243.25708008 C162.42555802 263.06056054 172.93847563 291.40807856 174.26489258 319.83129883 C175.00643315 353.13321185 163.99983352 383.79139575 141.19824219 408.125 C116.87923264 433.45747904 84.22293795 447.70891673 50.10083008 454.31567383 C49.29355469 454.47938477 48.4862793 454.6430957 47.65454102 454.81176758 C19.72039199 460.23065661 -13.01738626 459.75409947 -40.89916992 454.31567383 C-41.91430664 454.12231445 -42.92944336 453.92895508 -43.9753418 453.72973633 C-96.38503687 443.43213705 -139.95337472 418.19029389 -176.89916992 380.31567383 C-175.62674341 377.65418474 -174.2431633 375.24333556 -172.53588867 372.83911133 C-171.83411499 371.84729858 -171.83411499 371.84729858 -171.11816406 370.83544922 C-170.612771 370.12767334 -170.10737793 369.41989746 -169.58666992 368.69067383 C-169.05614014 367.94358154 -168.52561035 367.19648926 -167.97900391 366.42675781 C-162.54249139 358.78472476 -157.04777692 351.18472226 -151.54467773 343.59057617 C-149.89550713 341.31061004 -148.25196564 339.02669149 -146.61010742 336.74145508 C-139.49212332 326.84125567 -132.2533311 317.04171762 -124.89916992 307.31567383 C-121.02942286 310.56348511 -117.30484531 313.82135314 -113.83666992 317.50317383 C-108.00481082 323.39433997 -101.51390297 328.34620271 -94.89916992 333.31567383 C-94.32505371 333.75057129 -93.7509375 334.18546875 -93.15942383 334.63354492 C-84.19260212 341.3874749 -74.85537123 347.13583444 -64.89916992 352.31567383 C-64.16037598 352.70142578 -63.42158203 353.08717773 -62.66040039 353.48461914 C-50.79390184 359.59575235 -38.84479818 364.07251017 -25.89916992 367.31567383 C-25.21242188 367.49356445 -24.52567383 367.67145508 -23.81811523 367.85473633 C-1.5257867 373.41403053 25.11936883 373.07485235 45.58129883 361.87817383 C54.53368866 356.32630416 59.87026456 349.2655508 62.58911133 339.01879883 C64.36206501 329.65327253 63.4624008 322.28521845 58.10083008 314.31567383 C40.85749718 291.88485086 6.06948038 282.73231853 -19.27807617 272.53833008 C-59.8656054 256.21291283 -99.45748874 239.45538753 -131.89916992 209.31567383 C-132.5772168 208.70336914 -133.25526367 208.09106445 -133.95385742 207.46020508 C-153.71156674 188.8530451 -165.34282958 161.4484425 -166.23510742 134.50317383 C-166.61316249 104.3979423 -160.91026501 76.70471018 -140.89916992 53.31567383 C-140.23401367 52.51774414 -139.56885742 51.71981445 -138.88354492 50.89770508 C-113.78058538 21.77646604 -75.05766729 7.6439783 -37.89916992 2.31567383 C-36.72572021 2.13979736 -35.55227051 1.9639209 -34.34326172 1.78271484 C-22.90491941 0.18359867 -11.53705367 -0.02407454 0 0 Z " fill="#00034D" transform="translate(3123.899169921875,441.684326171875)"/>
<path d="M0 0 C28.67685924 -0.12049101 28.67685924 -0.12049101 42.9186058 -0.1507616 C50.59781258 -0.16733721 58.27692078 -0.18832695 65.95605469 -0.22631836 C72.69285867 -0.25963159 79.42953395 -0.27688641 86.1664238 -0.28463173 C88.72825166 -0.29014683 91.29007412 -0.30091601 93.85185623 -0.31719017 C134.26049411 -0.56353155 134.26049411 -0.56353155 149.0625 13.4375 C163.64380548 29.99717356 163.32112925 52.17431059 163.21359253 73.03627014 C163.21159536 74.89727517 163.21050041 76.75828135 163.21021855 78.61928743 C163.20695682 83.68478635 163.19128757 88.75017974 163.17349505 93.81564558 C163.15652396 99.2967942 163.15142 104.77795543 163.14498901 110.25912476 C163.13243459 119.74138818 163.11298206 129.22361667 163.08919907 138.70585823 C163.0551532 152.42405182 163.03611356 166.14223688 163.02144159 179.86046343 C162.9975887 202.13249016 162.9677349 224.40450442 162.93115234 246.67651367 C162.93006353 247.3418429 162.92897473 248.00717213 162.92785292 248.69266285 C162.902382 264.22919729 162.87433707 279.76572454 162.84191895 295.30224609 C162.84052457 295.9714417 162.83913019 296.64063731 162.83769357 297.33011157 C162.83065753 300.7050743 162.82360394 304.08003699 162.81654979 307.45499968 C162.81515623 308.12210405 162.81376267 308.78920841 162.81232687 309.47652807 C162.80951338 310.82302204 162.80669685 312.16951601 162.80387727 313.51600997 C162.7560622 336.39162412 162.72351351 359.26723271 162.70498669 382.14289087 C162.69327959 395.83050496 162.66853093 409.51797377 162.62704112 423.20553058 C162.59964913 432.57500731 162.58664046 441.94443319 162.58502088 451.31394959 C162.5836116 456.720586 162.57558949 462.12700551 162.5500946 467.5335865 C162.5268817 472.48207323 162.52209244 477.43022225 162.53197898 482.37875038 C162.53228168 484.16909864 162.52578817 485.95946358 162.51182483 487.74975742 C162.49381992 490.18388915 162.50056965 492.61676742 162.51339531 495.05090427 C162.50231556 495.74537986 162.49123581 496.43985545 162.47982031 497.15537575 C162.54563561 502.25824161 163.58450488 507.12187626 167 511 C179.32546541 517.86963297 179.32546541 517.86963297 214 516 C214 546.69 214 577.38 214 609 C188.01840462 609.08021762 188.01840462 609.08021762 176.84375 609.09765625 C169.25355187 609.10955779 161.66340252 609.12355448 154.07324219 609.15087891 C147.9459111 609.1727962 141.81863241 609.18460799 135.69126511 609.18975449 C133.36720328 609.19341664 131.04314395 609.2005666 128.71910477 609.21146011 C81.6333613 609.4231535 81.6333613 609.4231535 65.84375 595.03515625 C50.92011317 579.63819512 51.84864409 557.55966888 51.86196899 537.59587097 C51.8595478 535.73036795 51.85668456 533.86486546 51.85341966 531.99936372 C51.84570118 526.89368772 51.84404912 521.78802519 51.84336853 516.68234408 C51.8415227 511.16839291 51.83391266 505.65444951 51.82688904 500.14050293 C51.8153832 490.59266953 51.80712882 481.04483787 51.80076981 471.49699974 C51.7904309 456.41004145 51.76986591 441.32310508 51.74765015 426.23616028 C51.74017136 421.07246311 51.73275756 415.90876584 51.72536278 410.74506855 C51.72351221 409.45479897 51.72166165 408.16452939 51.719755 406.83516073 C51.69884411 392.16069844 51.67999286 377.48623381 51.66210938 362.81176758 C51.6612897 362.14148983 51.66047002 361.47121208 51.6596255 360.78062288 C51.64052927 345.13284427 51.623567 329.4850658 51.61126709 313.83728027 C51.61073742 313.1636405 51.61020775 312.49000073 51.60966204 311.79594763 C51.60540996 306.36530891 51.6012339 300.93467014 51.59707724 295.50403135 C51.57939877 272.48634157 51.55045775 249.46868375 51.5106281 226.45102006 C51.48720905 212.67019077 51.47323183 198.88941591 51.47130047 185.10856656 C51.46919496 175.67361393 51.45629822 166.23871554 51.43482114 156.80378725 C51.42276718 151.35699411 51.41565749 145.91030869 51.42153358 140.46350288 C51.42681346 135.48035331 51.41840536 130.49742387 51.39897721 125.51431111 C51.39438762 123.70903264 51.39489125 121.90373277 51.40092559 120.09845855 C51.40838418 117.64903832 51.3974955 115.20036136 51.38196754 112.75099468 C51.38853009 112.04634129 51.39509263 111.3416879 51.40185404 110.61568138 C51.34656387 106.02762059 50.38176112 102.91054458 48 99 C35.95710772 88.08612887 11.00837372 94.26849692 0 94 C0 62.98 0 31.96 0 0 Z " fill="#00034D" transform="translate(1039,281)"/>
<path d="M0 0 C28.67685924 -0.12049101 28.67685924 -0.12049101 42.9186058 -0.1507616 C50.59781258 -0.16733721 58.27692078 -0.18832695 65.95605469 -0.22631836 C72.69285867 -0.25963159 79.42953395 -0.27688641 86.1664238 -0.28463173 C88.72825166 -0.29014683 91.29007412 -0.30091601 93.85185623 -0.31719017 C133.55161993 -0.55921007 133.55161993 -0.55921007 148.625 13.4375 C159.48889562 25.15907159 163.18945942 39.04104689 163.1174612 54.89803982 C163.11801586 55.66686486 163.11857051 56.43568991 163.11914197 57.22781268 C163.11978318 59.80110646 163.11326906 62.37433159 163.10679626 64.94761658 C163.10579998 66.81236601 163.10525052 68.67711572 163.10510927 70.54186541 C163.10346388 75.66412756 163.09559518 80.78636425 163.08674753 85.90861833 C163.07831823 91.43357797 163.07571859 96.95854055 163.07249451 102.48350525 C163.06619556 112.0570566 163.0564548 121.63059943 163.04459953 131.20414543 C163.02762817 145.05461242 163.0180715 158.90507728 163.0107208 172.75555236 C162.99877332 195.23832328 162.98383969 217.72109086 162.96557617 240.20385742 C162.96503177 240.87650004 162.96448736 241.54914266 162.96392646 242.24216839 C162.95120049 257.93767204 162.93718845 273.63317389 162.92095947 289.32867432 C162.92026228 290.00386294 162.9195651 290.67905157 162.91884678 291.37470045 C162.9153291 294.77940324 162.91180228 298.18410601 162.9082749 301.58880878 C162.90757811 302.26171598 162.90688133 302.93462318 162.90616344 303.6279215 C162.90475668 304.98612209 162.90334841 306.34432267 162.90193863 307.70252325 C162.87803011 330.77804204 162.86175497 353.85355868 162.85249335 376.92908865 C162.8466369 390.74650313 162.83425411 404.56388167 162.81352056 418.38128198 C162.7998228 427.84663124 162.79332013 437.31196792 162.79251044 446.77732699 C162.79180575 452.24053303 162.78779359 457.70368542 162.7750473 463.16687775 C162.76344139 468.167501 162.76104621 473.16804069 162.76598949 478.16867418 C162.76614085 479.97815428 162.7628935 481.7876385 162.75591242 483.59710514 C162.74691241 486.05687943 162.7502851 488.5163435 162.75669765 490.97611904 C162.75115778 491.67826614 162.74561791 492.38041324 162.73991016 493.10383752 C162.77898171 499.22577923 163.46207891 505.37280017 167.25 510.375 C178.51407019 521.127067 205.98217668 515.76877376 215 516 C215 546.69 215 577.38 215 609 C188.76883869 609.08021762 188.76883869 609.08021762 177.48828125 609.09765625 C169.82565501 609.10955855 162.16307709 609.12355735 154.50048828 609.15087891 C148.31480254 609.17279353 142.12916871 609.18460745 135.94344711 609.18975449 C133.59705668 609.19341711 131.2506687 609.20056803 128.90430069 609.21146011 C80.60759265 609.42650679 80.60759265 609.42650679 66 595 C53.02920973 581.25572224 52.69939167 563.14937713 52.74171448 545.41950989 C52.7388568 543.53480736 52.73511715 541.65010601 52.73057598 539.76540679 C52.72062779 534.60656586 52.72295967 529.44779319 52.72730291 524.28894722 C52.72978491 518.71769359 52.72070358 513.14645763 52.71292114 507.57521057 C52.70089069 497.92752081 52.69576899 488.27984756 52.69503975 478.63215065 C52.69371296 464.67457125 52.67859175 450.71703187 52.65954458 436.75946661 C52.6287205 414.10144871 52.604517 391.44343159 52.58666992 368.78540039 C52.58613313 368.10790994 52.58559634 367.4304195 52.58504328 366.73239904 C52.57254287 350.9190735 52.56176153 335.10574747 52.55297852 319.29241943 C52.54990824 313.80277505 52.54681599 308.31313068 52.54370117 302.82348633 C52.54331936 302.14590813 52.54293754 301.46832993 52.54254416 300.77021905 C52.52936761 277.5082489 52.50469803 254.24631146 52.46995777 230.98436183 C52.4496593 217.05919958 52.43937955 203.13409944 52.44194698 189.20892229 C52.4429811 179.67257311 52.43336036 170.13627308 52.41530795 160.59994105 C52.40525261 155.09619006 52.40014609 149.59254782 52.40807533 144.08879089 C52.41524675 139.05126356 52.40868823 134.01394821 52.39118993 128.9764479 C52.38730343 127.15363526 52.3884896 125.3308033 52.39524681 123.50799904 C52.40370432 121.03013652 52.39370808 118.55299637 52.37917423 116.07517719 C52.38602262 115.3677561 52.39287101 114.66033501 52.39992693 113.93147692 C52.33924479 108.63525997 51.14160859 104.77362016 49 100 C35.54129427 87.1978165 22.8561822 94.54419481 0 94 C0 62.98 0 31.96 0 0 Z " fill="#00034D" transform="translate(2712,281)"/>
<path d="M0 0 C27.34975143 -0.12032643 27.34975143 -0.12032643 39.08007812 -0.14648438 C47.05906886 -0.16436189 55.0379312 -0.18542604 63.0168457 -0.22631836 C69.45539421 -0.25910671 75.89383098 -0.2768939 82.33245659 -0.28463173 C84.77902419 -0.29014044 87.22558624 -0.3008968 89.67210579 -0.31719017 C130.92640041 -0.58080884 130.92640041 -0.58080884 146 14 C161.48446288 31.98309212 159.2946042 57.40838363 159.27124023 79.51611328 C159.27451675 82.27718069 159.28082882 85.03823907 159.28707886 87.79930115 C159.2990486 93.71565373 159.30422774 99.63197953 159.30496025 105.54834366 C159.30629312 114.10866035 159.32146574 122.66891255 159.34045542 131.22920631 C159.37120064 145.1306608 159.39541452 159.03211693 159.41333008 172.93359375 C159.4149391 174.17820505 159.4149391 174.17820505 159.41658062 175.44796 C159.42841729 184.71854007 159.43862408 193.98912078 159.44702148 203.25970459 C159.45009613 206.62984214 159.45318479 209.99997967 159.45629883 213.37011719 C159.45744684 214.61774183 159.45744684 214.61774183 159.45861804 215.89057101 C159.4716964 229.75638611 159.49632293 243.62215392 159.53004223 257.48793399 C159.55031803 266.02930693 159.56062361 274.57057877 159.55805302 283.11197595 C159.55701847 288.95632475 159.56664635 294.8005934 159.58469205 300.64491422 C159.59473867 304.0159104 159.59822712 307.38658033 159.59192467 310.75760841 C159.58580842 314.41135208 159.59796978 318.06459246 159.61473083 321.71829224 C159.60851902 322.78325774 159.6023072 323.84822325 159.59590715 324.94546044 C159.64128489 330.35843074 159.84776151 334.37720797 163 339 C177.30298131 350.02521476 189.62307109 344.45187362 211 345 C211 375.36 211 405.72 211 437 C182.6132117 437.12049101 182.6132117 437.12049101 168.50448704 437.1507616 C160.90031313 437.16733021 153.29623887 437.18830305 145.69213867 437.22631836 C139.02016851 437.25965747 132.34832846 437.27689147 125.67627144 437.28463173 C123.14038969 437.29014251 120.60451333 437.30090302 118.0686779 437.31719017 C77.24165524 437.56880517 77.24165524 437.56880517 62.51953125 423.7421875 C52.30450943 412.030363 49.847207 397.51696349 49.86196899 382.51933289 C49.85914771 381.35674401 49.85632643 380.19415513 49.85341966 378.99633628 C49.84653623 375.77781113 49.84404855 372.55931695 49.84336853 369.34078562 C49.84152443 365.86624229 49.83391508 362.39171133 49.82688904 358.91717529 C49.81537595 352.89807478 49.80712507 346.87897704 49.80076981 340.859869 C49.79043068 331.34249915 49.76986395 321.82516404 49.74765015 312.30781555 C49.74017088 309.0497657 49.73275709 305.7917157 49.72536278 302.53366566 C49.72351221 301.71948831 49.72166165 300.90531097 49.719755 300.06646159 C49.69883735 290.80318154 49.68000434 281.53989767 49.66210938 272.27661133 C49.66047119 271.43003992 49.65883301 270.58346851 49.65714519 269.71124343 C49.63086032 255.9925083 49.61221562 242.27377048 49.59551747 228.55502083 C49.57808746 214.46237117 49.54923364 200.36977421 49.5106281 186.27716666 C49.48725268 177.58906856 49.47323575 168.9010564 49.47130047 160.2129266 C49.4691886 154.25725737 49.45623853 148.30167357 49.43482114 142.34604272 C49.42281331 138.91200928 49.41562662 135.47814546 49.42153358 132.04409218 C49.42542865 128.31641534 49.41097144 124.58923856 49.39199829 120.86161804 C49.39752799 119.78300607 49.40305768 118.7043941 49.40875494 117.59309691 C49.34496351 110.32632132 48.63073899 103.53789036 44.1875 97.5625 C32.55787927 89.25562805 9.21421503 93.25595042 0 93 C0 62.31 0 31.62 0 0 Z " fill="#00034D" transform="translate(405,452)"/>
<path d="M0 0 C3.77992265 0.48947747 6.84139956 1.71482079 10.25390625 3.37109375 C11.76706421 4.10078369 11.76706421 4.10078369 13.31079102 4.84521484 C14.38385498 5.37066895 15.45691895 5.89612305 16.5625 6.4375 C18.23880493 7.25275146 18.23880493 7.25275146 19.94897461 8.08447266 C22.22910318 9.19553367 24.50783881 10.30945793 26.78515625 11.42626953 C29.60139587 12.80487529 32.42406871 14.1687652 35.25 15.52734375 C47.564041 21.50074791 59.35172977 28.26797853 71.10302734 35.27587891 C73.82862178 36.89800498 76.56300664 38.50401225 79.30078125 40.10546875 C90.88668762 46.91807997 102.00618992 54.27277781 113 62 C114.22255565 62.85040505 115.44520486 63.70067563 116.66796875 64.55078125 C131.38469793 74.85374737 145.35582855 86.17919342 159.24267578 97.56298828 C160.85341883 98.8801366 162.47128566 100.18856073 164.08984375 101.49609375 C169.43166386 105.81899726 174.60736794 110.27466096 179.6875 114.90234375 C181.66384372 116.69507446 183.6645673 118.44795227 185.6875 120.1875 C196.3422663 129.51305783 206.47818132 139.37852385 216.5 149.375 C217.43150879 150.3019165 218.36301758 151.22883301 219.32275391 152.18383789 C223.87884234 156.75019333 228.30672131 161.36530194 232.50683594 166.26171875 C234.5717803 168.66564351 236.72476683 170.98489069 238.875 173.3125 C242.96880209 177.80148057 246.85469667 182.41243476 250.66796875 187.140625 C252.70492358 189.63819776 254.78357627 192.09253079 256.88525391 194.53564453 C263.39933636 202.12181211 269.45428567 210.02373821 275.48046875 218 C276.84948237 219.80188939 278.23183908 221.59175403 279.625 223.375 C297.04589082 245.70947541 312.84230411 269.47803341 327 294 C327.44037598 294.75974121 327.88075195 295.51948242 328.33447266 296.30224609 C336.83747082 311.04859363 344.18196587 326.21867891 350.5625 342 C350.90941895 342.85513184 351.25633789 343.71026367 351.61376953 344.59130859 C351.92813965 345.38617676 352.24250977 346.18104492 352.56640625 347 C352.84427979 347.70125 353.12215332 348.4025 353.40844727 349.125 C354 351 354 351 354 354 C346.58881628 356.02826732 339.17704186 358.05436569 331.76489258 360.07910156 C329.25434606 360.76515 326.74392498 361.45165767 324.23364258 362.13867188 C308.18241965 366.53116497 292.11486186 370.84659763 276 375 C275.52014648 374.02957764 275.04029297 373.05915527 274.54589844 372.05932617 C272.81938881 368.57639696 271.07692409 365.10212516 269.32617188 361.63134766 C268.42109452 359.83552223 267.51887259 358.03825557 266.61914062 356.23974609 C243.48501051 310.13539164 214.04421634 266.644938 179.265625 228.51171875 C177.38161595 226.42306734 175.52894136 224.31400734 173.68359375 222.19140625 C170.13981999 218.13400779 166.50126729 214.17562037 162.8125 210.25 C162.16466553 209.56043213 161.51683105 208.87086426 160.84936523 208.16040039 C153.23242665 200.08556708 145.57555623 192.03284909 137.11328125 184.83203125 C134.94345319 182.95097883 132.83512575 181.01056644 130.73071289 179.05688477 C125.57601783 174.2740519 120.3103125 169.71002634 114.828125 165.30078125 C112.32170018 163.26171465 109.86383482 161.17595849 107.41650391 159.06665039 C100.19461946 152.85714884 92.66133531 147.14324566 85 141.48974609 C83.10925957 140.08138451 81.23910352 138.65038869 79.375 137.20703125 C51.06451644 115.38333945 19.36108559 94.21266089 -14.22485352 81.63574219 C-19.76365953 79.47408175 -19.76365953 79.47408175 -20.8263855 77.34233093 C-21.07672834 73.96481482 -20.19411442 70.98954503 -19.29345703 67.76879883 C-19.00347839 66.68768578 -19.00347839 66.68768578 -18.7076416 65.58473206 C-18.06705942 63.20618599 -17.4126694 60.83168324 -16.7578125 58.45703125 C-16.30962546 56.80624856 -15.86219708 55.15525973 -15.41549683 53.5040741 C-14.47805039 50.04673005 -13.53426467 46.59120388 -12.58544922 43.13696289 C-11.36693318 38.70042712 -10.15987945 34.26087874 -8.95697212 29.82008839 C-8.03346743 26.41276975 -7.10616206 23.00649591 -6.1774559 19.60059166 C-5.73103149 17.96323465 -5.28528403 16.32569292 -4.84021378 14.6879673 C-4.2187973 12.40532848 -3.59280955 10.12399661 -2.96533203 7.84301758 C-2.68784622 6.81990479 -2.68784622 6.81990479 -2.40475464 5.77612305 C-1.11466017 1.11466017 -1.11466017 1.11466017 0 0 Z " fill="#00034D" transform="translate(3807,0)"/>
<path d="M0 0 C3.68664959 0.58483242 6.47989792 1.59894043 9.73828125 3.40625 C10.63224609 3.89786621 11.52621094 4.38948242 12.44726562 4.89599609 C13.39279297 5.42531738 14.33832031 5.95463867 15.3125 6.5 C16.79073242 7.31911865 16.79073242 7.31911865 18.29882812 8.15478516 C20.28757882 9.25817303 22.27474547 10.36442121 24.26025391 11.47363281 C26.57670467 12.76417373 28.90016688 14.039422 31.23046875 15.3046875 C48.06214518 24.50221913 64.13890382 34.91569825 79.28613281 46.67871094 C81.82789451 48.63825713 84.4168393 50.53302495 87 52.4375 C97.61371732 60.40861832 107.89010904 68.78353859 117.625 77.80859375 C119.71310039 79.73527849 121.83861873 81.59422525 124 83.4375 C128.25257931 87.12364969 132.1648693 91.13269748 136.09375 95.15625 C138.26686698 97.33748283 140.54252623 99.35441848 142.87890625 101.359375 C146.99543945 104.92697233 150.73685115 108.75716907 154.4375 112.75 C155.09073242 113.4510083 155.74396484 114.1520166 156.41699219 114.87426758 C160.74116399 119.54949696 164.87527682 124.33360317 168.84375 129.31640625 C170.80790994 131.7609314 172.82732956 134.14748687 174.87353516 136.5234375 C181.93996856 144.74546715 188.51747994 153.31323162 195 162 C195.53383301 162.71285156 196.06766602 163.42570313 196.61767578 164.16015625 C211.25464657 183.78892632 223.64604209 204.29395549 234.58300781 226.17480469 C235.46974804 227.94278504 236.36829761 229.70494684 237.28417969 231.45800781 C240 236.68257011 240 236.68257011 240 240 C230.14524423 242.63477536 220.2881437 245.26056742 210.42792797 247.87484074 C205.84976397 249.08896887 201.27247321 250.30620429 196.69702148 251.53051758 C192.28342046 252.71140054 187.86773287 253.88415122 183.45046425 255.05123711 C181.76355027 255.49847436 180.07741578 255.94866229 178.39208031 256.4018116 C176.03574705 257.03484348 173.67688822 257.65743253 171.31713867 258.27758789 C170.61726837 258.46819794 169.91739807 258.65880798 169.19631958 258.85519409 C165.91197243 259.70694275 164.29302088 260.09767363 161 259 C159.7800293 257.29199219 159.7800293 257.29199219 158.57421875 255.046875 C158.1148291 254.21075684 157.65543945 253.37463867 157.18212891 252.51318359 C156.68890137 251.60133301 156.19567383 250.68948242 155.6875 249.75 C143.48019788 227.82338878 128.98770281 206.87092823 112.515625 187.91796875 C110.08606208 185.09982667 107.75771097 182.22087633 105.4375 179.3125 C101.67078607 174.67654439 97.59727981 170.49257999 93.32421875 166.32421875 C91.32549136 164.32549136 89.49728038 162.29226786 87.6875 160.125 C83.11633178 154.79017779 77.83909968 150.18565744 72.63574219 145.48291016 C71.11633637 144.10546674 69.60844888 142.71534701 68.1015625 141.32421875 C61.92260938 135.63214589 55.55059683 130.2576032 49 125 C47.86801214 124.07610551 46.73652513 123.1515971 45.60546875 122.2265625 C27.18634977 107.23269218 7.80830437 93.1810854 -13.37695312 82.34692383 C-14.45879883 81.77494263 -14.45879883 81.77494263 -15.5625 81.19140625 C-16.20316406 80.86342041 -16.84382813 80.53543457 -17.50390625 80.19750977 C-19.56685146 78.54627833 -19.66042496 77.62666195 -20 75 C-19.40567017 71.80577087 -19.40567017 71.80577087 -18.38525391 67.98413086 C-18.20168839 67.28610855 -18.01812286 66.58808624 -17.82899475 65.86891174 C-17.22065424 63.56502154 -16.59873701 61.26503296 -15.9765625 58.96484375 C-15.55073338 57.3637052 -15.1257264 55.7623478 -14.70150757 54.16078186 C-13.58264096 49.94611909 -12.45210062 45.73467154 -11.3192749 41.52374268 C-10.16891066 37.23852211 -9.03051462 32.95012548 -7.890625 28.66210938 C-6.22400264 22.40202535 -4.55443602 16.14274138 -2.87353516 9.88647461 C-2.5352066 8.626129 -2.19687805 7.36578339 -1.84829712 6.06724548 C-1.28474272 4.02956358 -0.66856122 2.00568367 0 0 Z " fill="#00034D" transform="translate(3765,156)"/>
<path d="M0 0 C12.66473777 10.62452165 19.44855767 24.67124839 21.3203125 40.96875 C22.61766535 57.55989708 17.14356422 74.27146904 6.4453125 87.03125 C-5.09271025 98.86223036 -20.12464468 105.7634014 -36.63525391 106.32250977 C-53.76952218 106.50052282 -69.29245254 101.03107387 -81.6796875 88.96875 C-94.97537178 73.97393673 -98.7088883 57.99347997 -97.87060547 38.51123047 C-96.75462627 23.64958422 -88.9146849 10.67148975 -78.12109375 0.73828125 C-55.5587573 -18.42289669 -22.92596167 -17.37827998 0 0 Z " fill="#00034D" transform="translate(535.6796875,296.03125)"/>
<path d="M0 0 C4.99118239 2.77502032 9.74348179 5.74997811 14.4375 9 C15.47076416 9.71458374 15.47076416 9.71458374 16.52490234 10.44360352 C39.72534589 26.59964451 61.23957171 44.80058867 80 66 C80.7120459 66.79494873 80.7120459 66.79494873 81.43847656 67.60595703 C93.17614235 80.74436523 103.79136477 94.86658487 113.5 109.5625 C113.9751001 110.27059814 114.4502002 110.97869629 114.93969727 111.70825195 C116.0441156 113.42063793 117.0340782 115.20584263 118 117 C117.67 117.99 117.34 118.98 117 120 C114.57191877 120.92382838 112.27788139 121.63426965 109.77392578 122.28417969 C109.01782013 122.49104904 108.26171448 122.6979184 107.48269653 122.91105652 C104.97345974 123.5939547 102.45970733 124.25824219 99.9453125 124.921875 C98.20491538 125.38993907 96.46475482 125.85888355 94.724823 126.32867432 C91.07336242 127.31162015 87.41969453 128.28573527 83.76416016 129.25341797 C79.07358978 130.49555388 74.38828706 131.75633684 69.70439339 133.02338791 C66.10995703 133.99406371 62.51331004 134.95631863 58.91588974 135.91587067 C57.1872831 136.37773178 55.45928452 136.84187482 53.73190689 137.30831146 C51.31835225 137.95835877 48.90214936 138.59738944 46.48486328 139.23339844 C45.76786255 139.42864609 45.05086182 139.62389374 44.31213379 139.82505798 C40.99623304 140.68543883 39.32284108 141.10761369 36 140 C34.59731078 138.30508386 33.27609654 136.542165 32 134.75 C19.0148362 116.9297058 3.70158085 102.31124885 -13.45385742 88.52978516 C-14.12521729 87.9888623 -14.79657715 87.44793945 -15.48828125 86.890625 C-16.09196533 86.40625977 -16.69564941 85.92189453 -17.31762695 85.42285156 C-18.15040161 84.71854004 -18.15040161 84.71854004 -19 84 C-19.84316017 83.4473925 -19.84316017 83.4473925 -20.70335388 82.88362122 C-22 81 -22 81 -21.57025146 77.65354919 C-21.20802807 76.24394223 -20.82586136 74.83937652 -20.42871094 73.43920898 C-20.12454002 72.28757263 -20.12454002 72.28757263 -19.81422424 71.1126709 C-19.13778918 68.56895835 -18.43633957 66.03286886 -17.734375 63.49609375 C-17.26017585 61.73437139 -16.78747758 59.9722444 -16.31622314 58.20973206 C-15.069736 53.5651714 -13.80167084 48.92675998 -12.52947998 44.28918457 C-11.49340776 40.49877144 -10.47214142 36.70444802 -9.45174789 32.90978909 C-7.34612212 25.07951227 -5.23069679 17.25185315 -3.08886719 9.43139648 C-2.89138382 8.70459183 -2.69390045 7.97778717 -2.49043274 7.22895813 C-1.11582677 2.23165353 -1.11582677 2.23165353 0 0 Z " fill="#00034D" transform="translate(3722,320)"/>
</svg>
